#!OML:ASF H:\MichaelJackson\Top Level 1\Subject 1\Session 1\male.ASF
:FULLY-SPECIFIED
:DEGREES
247
root 17.9219 16.8428 -19.0757 11.3207 -3.77037 -0.675317
lowerback -2.4853 3.12602 4.67149
upperback -1.81515 4.08507 -1.95438
thorax -0.00990279 2.00803 -4.51629
lowerneck -6.85006 -3.44655 6.50155
upperneck 8.35068 -5.38399 0.795242
head 3.79439 -2.4116 -1.16447
rclavicle 1.44367e-014 -1.07344e-014
rhumerus -40.6191 37.4411 -111.887
rradius 138.703
rwrist -30.745
rhand 22.5265 -21.0363
rfingers 7.12502
rthumb 46.881 -43.7547
lclavicle 1.44367e-014 -1.07344e-014
lhumerus -41.9423 -22.3834 94.6464
lradius 45.9447
lwrist 9.66878
lhand -2.91527 11.3343
lfingers 7.12502
lthumb 22.7953 40.0074
rfemur -21.356 6.70118 21.1248
rtibia 32.5319
rfoot -26.9888 -25.2513
rtoes 21.3074
lfemur -26.5138 7.8616 -17.8045
ltibia 39.2385
lfoot -22.1257 6.94645
ltoes 18.3394
248
root 17.9124 16.8444 -19.0623 11.3183 -3.80846 -0.580823
lowerback -2.54494 3.15822 4.66038
upperback -1.84072 4.12608 -2.00501
thorax 0.00461036 2.02845 -4.55823
lowerneck -6.77997 -3.44455 6.5849
upperneck 8.1681 -5.3664 0.671209
head 3.71108 -2.41241 -1.21344
rclavicle 2.94947e-014 -2.18663e-015
rhumerus -40.5935 37.3922 -111.795
rradius 138.701
rwrist -30.7412
rhand 22.6476 -21.1493
rfingers 7.12502
rthumb 46.993 -43.8186
lclavicle 2.94947e-014 -2.18663e-015
lhumerus -41.911 -22.3165 94.5147
lradius 45.7844
lwrist 9.57537
lhand -3.09143 11.2596
lfingers 7.12502
lthumb 22.6262 39.9535
rfemur -21.2871 6.97543 21.0389
rtibia 32.5151
rfoot -27.0937 -25.4775
rtoes 21.4999
lfemur -26.1993 7.8287 -17.8642
ltibia 38.7881
lfoot -22.4476 6.90168
ltoes 19.25
249
root 17.9038 16.846 -19.0492 11.3332 -3.87913 -0.490383
lowerback -2.61292 3.19964 4.65454
upperback -1.87485 4.17904 -2.0524
thorax 0.016501 2.05458 -4.59901
lowerneck -6.71115 -3.43695 6.66697
upperneck 7.99561 -5.34128 0.54035
head 3.63209 -2.4094 -1.26425
rclavicle 1.19271e-014 -8.74653e-015
rhumerus -40.5534 37.3454 -111.671
rradius 138.689
rwrist -30.7704
rhand 22.7564 -21.2682
rfingers 7.12502
rthumb 47.0937 -43.893
lclavicle 1.19271e-014 -8.74653e-015
lhumerus -41.8924 -22.2219 94.3877
lradius 45.6442
lwrist 9.52889
lhand -3.302 11.2025
lfingers 7.12502
lthumb 22.4241 39.9208
rfemur -21.2467 7.20419 20.9524
rtibia 32.4987
rfoot -27.1836 -25.6402
rtoes 21.6597
lfemur -25.8862 7.74713 -17.9227
ltibia 38.3175
lfoot -22.7704 6.9529
ltoes 20.0466
250
root 17.8958 16.8479 -19.0362 11.3618 -3.97408 -0.404856
lowerback -2.69022 3.24655 4.65386
upperback -1.91439 4.23888 -2.09584
thorax 0.0289169 2.08403 -4.63784
lowerneck -6.64674 -3.42328 6.74905
upperneck 7.83154 -5.30826 0.401367
head 3.55737 -2.40244 -1.31765
rclavicle -2.67862e-014 -2.78299e-015
rhumerus -40.5021 37.2982 -111.523
rradius 138.663
rwrist -30.8255
rhand 22.8633 -21.3892
rfingers 7.12502
rthumb 47.1925 -43.9702
lclavicle -2.67862e-014 -2.78299e-015
lhumerus -41.8876 -22.1111 94.2679
lradius 45.5273
lwrist 9.52692
lhand -3.55108 11.1363
lfingers 7.12502
lthumb 22.185 39.8832
rfemur -21.2264 7.39372 20.8673
rtibia 32.4784
rfoot -27.2559 -25.7506
rtoes 21.7914
lfemur -25.5776 7.61862 -17.9786
ltibia 37.8372
lfoot -23.0706 7.11078
ltoes 20.7826
251
root 17.8882 16.85 -19.023 11.3956 -4.08114 -0.315829
lowerback -2.77342 3.29508 4.64784
upperback -1.95638 4.30075 -2.13704
thorax 0.0418752 2.11449 -4.6709
lowerneck -6.58578 -3.40356 6.83127
upperneck 7.67449 -5.26764 0.258393
head 3.48636 -2.3915 -1.37229
rclavicle 3.19049e-014 -1.15295e-014
rhumerus -40.4469 37.2365 -111.359
rradius 138.609
rwrist -30.8841
rhand 22.9806 -21.5008
rfingers 7.12502
rthumb 47.3009 -44.0333
lclavicle 3.19049e-014 -1.15295e-014
lhumerus -41.8966 -21.9985 94.1584
lradius 45.4284
lwrist 9.5644
lhand -3.82732 11.0508
lfingers 7.12502
lthumb 21.9198 39.8291
rfemur -21.213 7.54825 20.7782
rtibia 32.4523
rfoot -27.311 -25.8233
rtoes 21.8951
lfemur -25.2727 7.45386 -18.0426
ltibia 37.3574
lfoot -23.3612 7.34748
ltoes 21.4195
252
root 17.8807 16.8528 -19.0097 11.4409 -4.19886 -0.229941
lowerback -2.86612 3.34642 4.64273
upperback -2.00214 4.36598 -2.17499
thorax 0.0565041 2.1466 -4.70037
lowerneck -6.52428 -3.38287 6.92344
upperneck 7.5167 -5.22556 0.098999
head 3.4148 -2.38016 -1.43398
rclavicle -5.5287e-015 7.95139e-016
rhumerus -40.3926 37.15 -111.183
rradius 138.523
rwrist -30.9577
rhand 23.0935 -21.608
rfingers 7.12502
rthumb 47.4053 -44.0936
lclavicle -5.5287e-015 7.95139e-016
lhumerus -41.9162 -21.8913 94.0612
lradius 45.341
lwrist 9.61945
lhand -4.11328 10.9323
lfingers 7.12502
lthumb 21.6452 39.7425
rfemur -21.2132 7.6646 20.6909
rtibia 32.4192
rfoot -27.3429 -25.8548
rtoes 21.9656
lfemur -24.9866 7.25536 -18.1077
ltibia 36.8885
lfoot -23.6384 7.65375
ltoes 21.9701
253
root 17.873 16.8559 -18.9961 11.4823 -4.30683 -0.137383
lowerback -2.96044 3.39095 4.63242
upperback -2.04644 4.42218 -2.21331
thorax 0.072209 2.17427 -4.72745
lowerneck -6.45544 -3.36177 7.02703
upperneck 7.35236 -5.18227 -0.076256
head 3.33937 -2.36866 -1.50249
rclavicle -1.58158e-014 9.93923e-016
rhumerus -40.3463 37.0276 -111.01
rradius 138.395
rwrist -31.0161
rhand 23.2292 -21.7023
rfingers 7.12502
rthumb 47.5306 -44.1312
lclavicle -1.58158e-014 9.93923e-016
lhumerus -41.9516 -21.7964 93.9719
lradius 45.2686
lwrist 9.68376
lhand -4.40488 10.785
lfingers 7.12502
lthumb 21.3651 39.6271
rfemur -21.2047 7.75634 20.6
rtibia 32.3806
rfoot -27.3624 -25.8726
rtoes 22.0072
lfemur -24.7085 7.02558 -18.1795
ltibia 36.4388
lfoot -23.9039 8.00275
ltoes 22.4187
254
root 17.8644 16.859 -18.9818 11.5036 -4.38471 -0.0361752
lowerback -3.04803 3.42175 4.61182
upperback -2.08123 4.46051 -2.25049
thorax 0.0910906 2.19334 -4.7484
lowerneck -6.39831 -3.3369 7.12973
upperneck 7.19855 -5.13581 -0.247784
head 3.27056 -2.35493 -1.57011
rclavicle -6.4605e-016 1.78906e-015
rhumerus -40.3103 36.8678 -110.847
rradius 138.218
rwrist -31.0321
rhand 23.3848 -21.7642
rfingers 7.12502
rthumb 47.6742 -44.1276
lclavicle -6.4605e-016 1.78906e-015
lhumerus -41.9944 -21.7167 93.8874
lradius 45.2043
lwrist 9.74182
lhand -4.69642 10.6129
lfingers 7.12502
lthumb 21.0851 39.4865
rfemur -21.1641 7.8486 20.5084
rtibia 32.3387
rfoot -27.3817 -25.9129
rtoes 22.0337
lfemur -24.4246 6.76655 -18.2516
ltibia 36.0148
lfoot -24.1547 8.36191
ltoes 22.787
